# xmcd CD database file
#
# Track frame offsets:
#	150
#	22179
#	39763
#	62211
#	71959
#	88555
#	104057
#	121239
#	144763
#	157857
#	170440
#	183902
#	200062
#	216459
#	241394
#	260637
#
# Disc length: 3997 seconds
#
# Revision: 0
# Processed by: cddbd v1.5.2PL0 Copyright (c) Steve Scherf et al.
# Submitted via: CDex 1.51
#
DISCID=eb0f9b10
DTITLE=Louisiana Red - When My Mama Was Living
DYEAR=1970
DGENRE=Blues
TTITLE0=Walk All Over Georgia
TTITLE1=King Bee
TTITLE2=When My Mama Was Living
TTITLE3=Caught Your Man And Gone
TTITLE4=Bad Case Of The Blues
TTITLE5=Little Suzie Jane
TTITLE6=Got A Girl With A Dog Won`t Bark
TTITLE7=Cold White Sheet
TTITLE8=Going Down To Georgia
TTITLE9=You Got To Move
TTITLE10=Going Home
TTITLE11=I`ll Be Glad When You Are Dead You Rascal You
TTITLE12=Cold, Cold Feeling
TTITLE13=John Henry
TTITLE14=Stole From Me
TTITLE15=Joanne
EXTD=YEAR: 1970
EXTT0=
EXTT1=
EXTT2=
EXTT3=
EXTT4=
EXTT5=
EXTT6=
EXTT7=
EXTT8=
EXTT9=
EXTT10=
EXTT11=
EXTT12=
EXTT13=
EXTT14=
EXTT15=
PLAYORDER=
